# AST/ASF file generated using VICON BodyLanguage
# -----------------------------------------------
:version 1.10
:name VICON
:units
  mass 1.0
  length 0.45
  angle deg
:documentation
   .ast/.asf automatically generated from VICON data using
   VICON BodyBuilder and BodyLanguage model FoxedUp or BRILLIANT.MOD
:root
   order TX TY TZ RX RY RZ
   axis XYZ
   position 0 0 0  
   orientation 0 0 0 
:bonedata
  begin
     id 1 
     name lhipjoint
     direction 0.692814 -0.645514 0.321437 
     length 2.38754 
     axis 0 0 0  XYZ
  end
  begin
     id 2 
     name lfemur
     direction 0.34202 -0.939693 0  
     length 6.41921  
     axis 0 0 20  XYZ
    dof rx ry rz
    limits (-160.0 20.0)
           (-70.0 70.0)
           (-60.0 70.0)
  end
  begin
     id 3 
     name ltibia
     direction 0.34202 -0.939693 0   
     length 6.98247   
     axis 0 0 20   XYZ
    dof rx
    limits (-10.0 170.0)
  end
  begin
     id 4 
     name lfoot
     direction 0.0947186 -0.260237 0.960888   
     length 1.83034   
     axis -90 7.62852e-016 20   XYZ
    dof rx rz
    limits (-45.0 90.0)
           (-70.0 20.0)
  end
  begin
     id 5 
     name ltoes
     direction 1.53538e-011 -4.21952e-011 1   
     length 0.920499   
     axis -90 7.62852e-016 20   XYZ
    dof rx
    limits (-90.0 20.0)
  end
  begin
     id 6 
     name rhipjoint
     direction -0.631686 -0.693949 0.345555   
     length 2.2209  
     axis 0 0 0  XYZ 
  end
  begin
     id 7 
     name rfemur
     direction -0.34202 -0.939693 0   
     length 6.49542   
     axis 0 0 -20   XYZ
    dof rx ry rz
    limits (-160.0 20.0)
           (-70.0 70.0)
           (-70.0 60.0)
  end
  begin
     id 8 
     name rtibia
     direction -0.34202 -0.939693 0   
     length 7.21712   
     axis 0 0 -20   XYZ
    dof rx
    limits (-10.0 170.0)
 end
 begin
     id 9 
     name rfoot
     direction -0.0825378 -0.226771 0.970444   
     length 1.89724  
     axis -90 -7.62852e-016 -20   XYZ
    dof rx rz
    limits (-45.0 90.0)
           (-20.0 70.0)
  end
  begin
     id 10 
     name rtoes
     direction -1.53515e-011 -4.22016e-011 1   
     length 0.955868   
     axis -90 -7.62852e-016 -20   XYZ
    dof rx
    limits (-90.0 20.0)
  end
  begin
     id 11 
     name lowerback
     direction -0.0104711 0.984802 -0.173368   
     length 1.84931   
     axis 0 0 0   XYZ
    dof rx ry rz
    limits (-20.0 45.0)
           (-30.0 30.0)
           (-30.0 30.0)
  end
  begin
     id 12 
     name upperback
     direction -0.00286433 0.999996 -0.000382853   
     length 1.85768   
     axis 0 0 0   XYZ
    dof rx ry rz
    limits (-20.0 45.0)
           (-30.0 30.0)
           (-30.0 30.0)
  end
  begin
     id 13 
     name thorax
     direction 0.00167534 0.996793 0.0800069   
     length 1.92   
     axis 0 0 0   XYZ
    dof rx ry rz
    limits (-20.0 45.0)
           (-30.0 30.0)
           (-30.0 30.0)
  end
  begin
     id 14 
     name lowerneck
     direction -0.0672491 0.995415 0.068018   
     length 1.58923   
     axis 0 0 0   XYZ
    dof rx ry rz
    limits (-20.0 45.0)
           (-30.0 30.0)
           (-30.0 30.0)
  end
  begin
     id 15 
     name upperneck
     direction 0.0958019 0.982476 -0.159884   
     length 1.60189   
     axis 0 0 0   XYZ
    dof rx ry rz
    limits (-20.0 45.0)
           (-30.0 30.0)
           (-30.0 30.0)
  end
  begin
     id 16
     name head
     direction 0.032989 0.997338 -0.0650226  
     length 1.61681  
     axis 0 0 0   XYZ
    dof rx ry rz
    limits (-20.0 45.0)
           (-30.0 30.0)
           (-30.0 30.0)
  end
  begin
     id 17 
     name lclavicle
     direction 0.954279 0.298875 -0.00496069  
     length 2.99449  
     axis 0 0 0   XYZ
    dof ry rz
    limits (-20.0 10.0)
           (0.0 20.0)
  end
  begin
     id 18 
     name lhumerus
     direction 1 -4.48985e-011 -4.2057e-027   
     length 4.79185   
     axis 180 -30 -90   XYZ
    dof rx ry rz
    limits (-60.0 90.0)
           (-90.0 90.0)
           (-90.0 90.0)
  end
  begin
     id 19
     name lradius
     direction 1 -4.48945e-011 1.15441e-028   
     length 2.65553   
     axis 180 -30 -90   XYZ
    dof rx
    limits (-10.0 170.0)
  end
  begin
     id 20
     name lwrist
     direction 1 -4.4899e-011 4.8894e-028   
     length 1.32777   
     axis -2.56392e-016 90 90   XYZ
    dof ry
    limits (-180.0 0.0)
 end
  begin
     id 21 
     name lhand
     direction 1 -4.48908e-011 9.7788e-028   
     length 0.743904   
     axis -6.23971e-016 90 90   XYZ
    dof rx rz
    limits (-90.0 90.0)
           (-45.0 45.0)
  end
  begin
     id 22 
     name lfingers
     direction 1 -4.49068e-011 1.95576e-027   
     length 0.599754   
     axis -1.24794e-015 90 90   XYZ
    dof rx
    limits (0.0 90.0)
  end
  begin
     id 23
     name lthumb
     direction 0.707107 -6.34883e-011 0.707107   
     length 0.861131   
     axis -90 45 2.85299e-015   XYZ
    dof rx rz
    limits (-45.0 45.0)
           (-45.0 45.0)
  end
  begin
     id 24 
     name rclavicle
     direction -0.957921 0.286916 0.00811568   
     length 3.06817  
     axis 0 0 0   XYZ 
    dof ry rz
    limits (-10.0 20.0)
           (-20.0 0.0)
  end
  begin
     id 25 
     name rhumerus
     direction -1 -4.48971e-011 -3.07942e-027  
     length 4.77254   
     axis 180 30 90   XYZ
    dof rx ry rz
    limits (-90.0 60.0)
           (-90.0 90.0)
           (-90.0 90.0)
  end
  begin
     id 26 
     name rradius
     direction -1 -4.48957e-011 -9.6815e-028   
     length 2.75995   
     axis 180 30 90   XYZ
    dof rx
    limits (-10.0 170.0)
  end
  begin
     id 27 
     name rwrist
     direction -1 -4.48979e-011 4.8894e-028   
     length 1.37997   
     axis -2.56392e-016 -90 -90   XYZ
    dof ry
    limits (-180.0 0.0)
  end
  begin
     id 28
     name rhand
     direction -1 -4.48906e-011 9.7788e-028   
     length 0.701619   
     axis -6.23971e-016 -90 -90   XYZ
    dof rx rz
    limits (-90.0 90.0)
           (-45.0 45.0)
  end
  begin
     id 29
     name rfingers
     direction -1 -4.49018e-011 1.95576e-027   
     length 0.565663   
     axis -1.24794e-015 -90 -90   XYZ
    dof rx
    limits (0.0 90.0)
  end
  begin
     id 30
     name rthumb
     direction -0.707107 -6.34881e-011 0.707107   
     length 0.812183   
     axis -90 -45 -2.85299e-015   XYZ
    dof rx rz
    limits (-45.0 45.0)
           (-45.0 45.0)
  end
:hierarchy
  begin
    root lhipjoint rhipjoint lowerback
    lhipjoint lfemur
    lfemur ltibia
    ltibia lfoot
    lfoot ltoes
    rhipjoint rfemur
    rfemur rtibia
    rtibia rfoot
    rfoot rtoes
    lowerback upperback
    upperback thorax
    thorax lowerneck lclavicle rclavicle
    lowerneck upperneck
    upperneck head
    lclavicle lhumerus
    lhumerus lradius
    lradius lwrist
    lwrist lhand lthumb
    lhand lfingers
    rclavicle rhumerus
    rhumerus rradius
    rradius rwrist
    rwrist rhand rthumb
    rhand rfingers
  end

#!OML:ASF F:\VICON\USERDATA\INSTALL\rory3\rory3.ASF
:FULLY-SPECIFIED
:DEGREES
1170
root 0.300358 15.9857 -0.142162 -1.0655 -0.866185 -0.54018
lowerback 12.157 0.964166 -1.54785
upperback -1.04366 1.06527 0.124317
thorax -7.97843 0.587049 0.805296
lowerneck -12.7561 -10.5232 -14.1305
upperneck 32.6115 -12.8575 3.31592
head 14.5979 -6.89405 1.52745
rclavicle -1.47535e-014 -1.03368e-014
rhumerus -14.0617 34.527 -85.4301
rradius 50.7988
rwrist 29.3371
rhand -12.0756 16.2511
rfingers 7.12502
rthumb 13.9841 -13.2585
lclavicle -1.47535e-014 -1.03368e-014
lhumerus 27.0226 -19.3693 63.8467
lradius 80.0856
lwrist -8.45705
lhand -9.61325 12.5991
lfingers 7.12502
lthumb 16.356 41.9295
rfemur -4.28683 11.3898 17.6823
rtibia 23.4407
rfoot -13.4308 -12.6235
rtoes -11.2318
lfemur -1.66861 -11.2188 -17.3184
ltibia 18.664
lfoot -11.9295 8.75357
ltoes -12.2504
1171
root 0.297437 15.985 -0.145325 -1.03967 -0.840093 -0.69418
lowerback 12.2028 0.945016 -1.4516
upperback -1.05355 1.05873 0.193649
thorax -8.01457 0.581598 0.825118
lowerneck -12.76 -10.5195 -14.1294
upperneck 32.5197 -12.8505 3.3291
head 14.5569 -6.88828 1.53516
rclavicle -1.02498e-014 -5.1684e-015
rhumerus -14.4175 34.5656 -85.6767
rradius 50.9259
rwrist 29.2577
rhand -12.0567 16.2392
rfingers 7.12502
rthumb 14.0024 -13.2692
lclavicle -1.02498e-014 -5.1684e-015
lhumerus 26.1958 -19.9306 64.099
lradius 79.5553
lwrist -8.43639
lhand -9.45696 12.4888
lfingers 7.12502
lthumb 16.5065 41.8067
rfemur -4.28378 11.4472 17.8728
rtibia 23.3664
rfoot -13.4099 -12.7166
rtoes -11.1148
lfemur -1.78458 -11.1564 -17.1114
ltibia 18.7681
lfoot -11.9325 8.6535
ltoes -12.3714
1172
root 0.294459 15.9863 -0.149075 -1.01156 -0.81824 -0.810759
lowerback 12.2715 0.934617 -1.38469
upperback -1.08157 1.0581 0.248727
thorax -8.08377 0.580176 0.844828
lowerneck -12.7603 -10.5146 -14.1555
upperneck 32.47 -12.8437 3.35978
head 14.5386 -6.88405 1.55346
rclavicle -9.42985e-015 1.09332e-015
rhumerus -14.7901 34.3559 -85.9267
rradius 51.0232
rwrist 29.3512
rhand -12.0201 16.4792
rfingers 7.12502
rthumb 14.0376 -13.0267
lclavicle -9.42985e-015 1.09332e-015
lhumerus 25.3023 -20.5342 64.3984
lradius 79.1307
lwrist -8.28964
lhand -8.5808 12.9953
lfingers 7.12502
lthumb 17.3499 42.2409
rfemur -4.28543 11.5039 18.0204
rtibia 23.2845
rfoot -13.4109 -12.7865
rtoes -10.8911
lfemur -1.90409 -11.14 -16.9436
ltibia 18.8843
lfoot -11.9261 8.54503
ltoes -12.1675
1173
root 0.295364 15.9864 -0.147425 -1.04515 -0.788929 -0.886632
lowerback 12.285 0.915055 -1.30815
upperback -1.0438 1.04635 0.285434
thorax -8.04971 0.571634 0.84298
lowerneck -12.8053 -10.511 -14.1746
upperneck 32.3979 -12.8447 3.42558
head 14.5229 -6.87632 1.58129
rclavicle -2.08103e-015 6.55989e-015
rhumerus -15.0513 34.2926 -86.1149
rradius 51.0931
rwrist 29.4278
rhand -12.0679 16.5921
rfingers 7.12502
rthumb 13.9915 -12.9171
lclavicle -2.08103e-015 6.55989e-015
lhumerus 24.4304 -21.163 64.6477
lradius 78.6038
lwrist -8.3546
lhand -7.4795 13.6924
lfingers 7.12502
lthumb 18.4096 42.8412
rfemur -4.19336 11.4935 18.109
rtibia 23.2195
rfoot -13.4544 -12.7498
rtoes -10.5271
lfemur -1.90538 -11.1471 -16.8738
ltibia 18.9669
lfoot -11.9126 8.51372
ltoes -12.367
1174
root 0.296579 15.9867 -0.146004 -1.06594 -0.743501 -0.925316
lowerback 12.2832 0.887416 -1.24762
upperback -1.01138 1.01974 0.298635
thorax -8.01211 0.556057 0.828175
lowerneck -12.8509 -10.497 -14.2112
upperneck 32.3421 -12.8396 3.52901
head 14.5188 -6.86351 1.62785
rclavicle 5.81445e-015 -1.98785e-016
rhumerus -15.313 34.2754 -86.316
rradius 51.164
rwrist 29.424
rhand -12.1368 16.6565
rfingers 7.12502
rthumb 13.9251 -12.8572
lclavicle 5.81445e-015 -1.98785e-016
lhumerus 23.4838 -21.8744 64.9018
lradius 77.8477
lwrist -8.92268
lhand -7.06491 13.7629
lfingers 7.12502
lthumb 18.8084 42.8736
rfemur -4.13122 11.4543 18.1527
rtibia 23.1767
rfoot -13.4445 -12.7755
rtoes -10.5439
lfemur -1.88245 -11.2116 -16.8462
ltibia 18.9716
lfoot -11.9427 8.54546
ltoes -12.3216
1175
root 0.295408 15.9861 -0.144652 -1.1139 -0.841877 -0.888042
lowerback 12.3321 0.920082 -1.31013
upperback -0.990567 1.05306 0.295952
thorax -8.0197 0.574756 0.853797
lowerneck -12.915 -10.4965 -14.2108
upperneck 32.3232 -12.8345 3.54773
head 14.5251 -6.85704 1.63311
rclavicle -2.21769e-015 -2.98177e-016
rhumerus -15.577 34.2656 -86.5271
rradius 51.2367
rwrist 29.3896
rhand -12.2262 16.6012
rfingers 7.12502
rthumb 13.8391 -12.9184
lclavicle -2.21769e-015 -2.98177e-016
lhumerus 22.4164 -22.7309 65.1854
lradius 76.8918
lwrist -9.3128
lhand -7.42209 13.7419
lfingers 7.12502
lthumb 18.4648 42.8855
rfemur -4.07006 11.496 18.1206
rtibia 23.1483
rfoot -13.385 -12.7165
rtoes -10.3116
lfemur -1.76852 -11.1502 -16.8937
ltibia 18.9223
lfoot -11.9764 8.51767
ltoes -11.9443
